<?xml version="1.0" encoding="UTF-8" standalone="no"?>
<svg
   xmlns:dc="http://purl.org/dc/elements/1.1/"
   xmlns:cc="http://creativecommons.org/ns#"
   xmlns:rdf="http://www.w3.org/1999/02/22-rdf-syntax-ns#"
   xmlns:svg="http://www.w3.org/2000/svg"
   xmlns="http://www.w3.org/2000/svg"
   xmlns:sodipodi="http://sodipodi.sourceforge.net/DTD/sodipodi-0.dtd"
   xmlns:inkscape="http://www.inkscape.org/namespaces/inkscape"
   version="1.1"
   id="Livello_1"
   x="0px"
   y="0px"
   viewBox="0 0 1443 623.2"
   style="enable-background:new 0 0 1443 623.2;"
   xml:space="preserve"
   sodipodi:docname="Logo_Olicyber_White.svg"
   inkscape:version="1.0.2-2 (e86c870879, 2021-01-15)"><metadata
   id="metadata157"><rdf:RDF><cc:Work
       rdf:about=""><dc:format>image/svg+xml</dc:format><dc:type
         rdf:resource="http://purl.org/dc/dcmitype/StillImage" /></cc:Work></rdf:RDF></metadata><defs
   id="defs155" /><sodipodi:namedview
   pagecolor="#ffffff"
   bordercolor="#666666"
   borderopacity="1"
   objecttolerance="10"
   gridtolerance="10"
   guidetolerance="10"
   inkscape:pageopacity="0"
   inkscape:pageshadow="2"
   inkscape:window-width="1688"
   inkscape:window-height="1336"
   id="namedview153"
   showgrid="false"
   inkscape:zoom="0.61988224"
   inkscape:cx="716.13104"
   inkscape:cy="334.82937"
   inkscape:window-x="1707"
   inkscape:window-y="16"
   inkscape:window-maximized="0"
   inkscape:current-layer="g92" />
<style
   type="text/css"
   id="style2">
	.st0{fill:#E33343;}
	.st1{enable-background:new    ;}
	.st2{fill:#FFFFFF;}
	.st3{fill:#1A4778;}
</style>
<g
   id="g150">
	<g
   id="g92">
		<rect
   x="617.4"
   y="401"
   class="st0"
   width="825.6"
   height="80.3"
   id="rect4" />
		<g
   class="st1"
   id="g72">
			<path
   class="st2"
   d="M652.7,420.1c0.5,0,0.9,0.2,1.3,0.5c0.4,0.4,0.5,0.8,0.5,1.3s-0.2,0.9-0.5,1.3c-0.1,0.1-0.2,0.2-0.3,0.3     c-0.3,0.2-0.5,0.4-0.8,0.6c-0.9,0.9-1.4,2.1-1.4,3.4v24.9c0,1.3,0.5,2.4,1.4,3.4c0.2,0.2,0.5,0.5,0.8,0.6     c0.1,0.1,0.2,0.2,0.3,0.2c0.4,0.4,0.5,0.8,0.5,1.3s-0.2,0.9-0.5,1.3c-0.4,0.4-0.8,0.5-1.2,0.5c-0.4,0-0.7-0.1-1-0.3     c-0.5-0.3-0.9-0.7-1.4-1.1c-1.6-1.6-2.4-3.6-2.4-6v-24.9c0-2.3,0.8-4.3,2.4-6c0.5-0.4,0.8-0.8,1.3-1.1     C652,420.2,652.3,420.1,652.7,420.1z M659.1,423.5c-0.2-0.1-0.3-0.2-0.5-0.4c-0.4-0.3-0.5-0.8-0.5-1.3s0.2-0.9,0.5-1.3     c0.4-0.4,0.8-0.5,1.3-0.5c0.4,0,0.8,0.1,1.1,0.3c0.5,0.3,0.8,0.7,1.2,1.1c1.6,1.6,2.4,3.6,2.4,6v24.9c0,2.3-0.8,4.3-2.4,6     c-0.5,0.5-0.9,0.8-1.4,1.1c-0.3,0.2-0.6,0.3-1,0.3c-0.5,0-0.9-0.2-1.3-0.5c-0.4-0.4-0.5-0.8-0.5-1.2c0-0.5,0.2-0.9,0.5-1.3     c0.1-0.1,0.2-0.2,0.2-0.2c0.3-0.2,0.5-0.4,0.8-0.7c0.9-0.9,1.4-2.1,1.4-3.4v-24.9c0-1.3-0.5-2.4-1.4-3.4     C659.5,423.8,659.3,423.7,659.1,423.5z"
   id="path6" />
			<path
   class="st2"
   d="M674,421.8c0-0.5,0.2-0.9,0.5-1.3c0.4-0.4,0.8-0.5,1.3-0.5c0.5,0,0.9,0.2,1.3,0.5c0.4,0.4,0.5,0.8,0.5,1.3     v34.3h8.4c0.5,0,0.9,0.2,1.3,0.5s0.5,0.8,0.5,1.3s-0.2,0.9-0.5,1.3c-0.4,0.4-0.8,0.5-1.3,0.5h-10.3c-0.5,0-0.9-0.2-1.3-0.5     c-0.4-0.4-0.5-0.8-0.5-1.3L674,421.8L674,421.8z"
   id="path8" />
			<path
   class="st2"
   d="M694,421.8c0-0.5,0.2-0.9,0.5-1.3c0.4-0.4,0.8-0.5,1.3-0.5c0.5,0,0.9,0.2,1.3,0.5c0.4,0.4,0.5,0.8,0.5,1.3     v36c0,0.5-0.2,0.9-0.5,1.3c-0.4,0.4-0.8,0.5-1.3,0.5c-0.5,0-0.9-0.2-1.3-0.5c-0.4-0.4-0.5-0.8-0.5-1.3V421.8z"
   id="path10" />
			<path
   class="st2"
   d="M732.7,420.5c0.4-0.3,0.8-0.5,1.2-0.5c0.5,0,0.9,0.2,1.3,0.5c0.4,0.4,0.5,0.8,0.5,1.3V458     c0,0.5-0.2,0.9-0.5,1.2c-0.4,0.4-0.8,0.5-1.3,0.5c-0.5,0-0.9-0.2-1.2-0.5c-0.4-0.3-0.5-0.8-0.5-1.2v-27.8l-8.5,18.6     c-0.2,0.5-0.5,0.8-1,1c-0.2,0.2-0.5,0.2-0.8,0.2c-0.2,0-0.4-0.1-0.6-0.2c-0.5-0.2-0.8-0.5-1-0.9l-8.6-18.8v27.8     c0,0.5-0.2,0.9-0.5,1.3s-0.8,0.5-1.3,0.5c-0.5,0-0.9-0.2-1.3-0.5c-0.4-0.4-0.5-0.8-0.5-1.3v-36c0-0.5,0.2-0.9,0.5-1.3     c0.4-0.4,0.8-0.5,1.3-0.5c0.5,0,0.9,0.2,1.3,0.5c0.2,0.2,0.2,0.2,0.3,0.4l10.5,22.8l10.4-22.7     C732.4,420.9,732.6,420.8,732.7,420.5z"
   id="path12" />
			<path
   class="st2"
   d="M755.1,445.3c1.1-0.1,2.1-0.5,3-1.4c0.9-0.9,1.4-2.1,1.4-3.4v-12.1c0-1.3-0.5-2.4-1.4-3.4     c-0.9-0.9-2.1-1.4-3.4-1.4h-4.8V458c0,0.5-0.2,0.9-0.5,1.3c-0.4,0.4-0.8,0.5-1.3,0.5c-0.5,0-0.9-0.2-1.3-0.5     c-0.4-0.4-0.5-0.8-0.5-1.3v-36c0-0.5,0.2-0.9,0.5-1.3c0.4-0.4,0.8-0.5,1.3-0.5h6.6c2.3,0,4.3,0.8,6,2.4c1.6,1.6,2.4,3.6,2.4,6v12     c0,2.3-0.8,4.3-2.4,6c-1.5,1.5-3.2,2.3-5.2,2.4c-0.6,0-1.1-0.2-1.4-0.5c-0.4-0.4-0.5-0.8-0.5-1.3s0.2-0.9,0.5-1.2     C754.2,445.6,754.6,445.4,755.1,445.3z"
   id="path14" />
			<path
   class="st2"
   d="M771.1,421.8c0-0.5,0.2-0.9,0.5-1.3c0.4-0.4,0.8-0.5,1.3-0.5c0.5,0,0.9,0.2,1.3,0.5c0.4,0.4,0.5,0.8,0.5,1.3     v36c0,0.5-0.2,0.9-0.5,1.3c-0.4,0.4-0.8,0.5-1.3,0.5c-0.5,0-0.9-0.2-1.3-0.5c-0.4-0.4-0.5-0.8-0.5-1.3V421.8z"
   id="path16" />
			<path
   class="st2"
   d="M792.4,447.8c0.5,0,0.9,0.2,1.3,0.5c0.4,0.4,0.5,0.8,0.5,1.3c0,0.5-0.2,0.9-0.5,1.3     c-0.4,0.4-0.8,0.5-1.3,0.5h-6l-1.8,6.8c-0.1,0.4-0.3,0.7-0.5,1c-0.4,0.4-0.8,0.5-1.3,0.5c-0.5,0-0.9-0.2-1.3-0.5     c-0.4-0.4-0.5-0.8-0.5-1.3c0-0.2,0-0.3,0-0.4l9.6-35.9c0.1-0.4,0.2-0.7,0.5-1c0.4-0.4,0.8-0.5,1.2-0.5c0.5,0,0.9,0.2,1.3,0.5     c0.2,0.3,0.4,0.6,0.5,1l9.6,35.9c0,0.2,0,0.2,0,0.4c0,0.5-0.2,0.9-0.5,1.3c-0.4,0.4-0.8,0.5-1.3,0.5s-0.9-0.2-1.3-0.5     c-0.2-0.2-0.5-0.6-0.5-1l-7.8-29.3l-5,18.8L792.4,447.8L792.4,447.8z"
   id="path18" />
			<path
   class="st2"
   d="M819,456.1c1.1-0.1,2.1-0.5,3-1.4c0.9-0.9,1.4-2.1,1.4-3.4v-22.9c0-1.3-0.5-2.4-1.4-3.4s-2.1-1.4-3.4-1.4     h-4.8V458c0,0.5-0.2,0.9-0.5,1.3c-0.4,0.4-0.8,0.5-1.3,0.5c-0.5,0-0.9-0.2-1.3-0.5c-0.4-0.4-0.5-0.8-0.5-1.3v-36     c0-0.5,0.2-0.9,0.5-1.3c0.4-0.4,0.8-0.5,1.3-0.5h6.6c2.3,0,4.3,0.8,6,2.4c1.7,1.6,2.4,3.6,2.4,6v22.9c0,2.3-0.8,4.3-2.4,5.9     c-1.5,1.5-3.2,2.3-5.2,2.4c-0.6,0-1.1-0.2-1.4-0.5c-0.4-0.4-0.5-0.8-0.5-1.3s0.2-0.9,0.5-1.2C818.1,456.4,818.5,456.2,819,456.1z     "
   id="path20" />
			<path
   class="st2"
   d="M835,421.8c0-0.5,0.2-0.9,0.5-1.3c0.4-0.4,0.8-0.5,1.3-0.5c0.5,0,0.9,0.2,1.3,0.5c0.4,0.4,0.5,0.8,0.5,1.3     v36c0,0.5-0.2,0.9-0.5,1.3c-0.4,0.4-0.8,0.5-1.3,0.5c-0.5,0-0.9-0.2-1.3-0.5c-0.4-0.4-0.5-0.8-0.5-1.3V421.8z"
   id="path22" />
			<path
   class="st2"
   d="M865.5,421.8c0-0.5,0.2-0.9,0.5-1.3c0.4-0.4,0.8-0.5,1.3-0.5c0.5,0,0.9,0.2,1.3,0.5c0.4,0.4,0.5,0.8,0.5,1.3     v36c0,0.5-0.2,0.9-0.5,1.3c-0.4,0.4-0.8,0.5-1.3,0.5c-0.5,0-0.9-0.2-1.3-0.5c-0.4-0.4-0.5-0.8-0.5-1.3V421.8z"
   id="path24" />
			<path
   class="st2"
   d="M876.9,423.7c-0.5,0-0.9-0.2-1.3-0.5c-0.4-0.4-0.5-0.8-0.5-1.3s0.2-0.9,0.5-1.3c0.4-0.4,0.8-0.5,1.3-0.5     h13.2c0.5,0,0.9,0.2,1.3,0.5c0.4,0.4,0.5,0.8,0.5,1.3s-0.2,0.9-0.5,1.3c-0.4,0.4-0.8,0.5-1.3,0.5h-4.8V458c0,0.5-0.2,0.9-0.5,1.3     c-0.4,0.4-0.8,0.5-1.3,0.5c-0.5,0-0.9-0.2-1.3-0.5c-0.4-0.4-0.5-0.8-0.5-1.3v-34.3H876.9z"
   id="path26" />
			<path
   class="st2"
   d="M905.7,447.8c0.5,0,0.9,0.2,1.3,0.5c0.4,0.4,0.5,0.8,0.5,1.3c0,0.5-0.2,0.9-0.5,1.3     c-0.4,0.4-0.8,0.5-1.3,0.5h-6l-1.8,6.8c-0.1,0.4-0.3,0.7-0.5,1c-0.4,0.4-0.8,0.5-1.3,0.5c-0.5,0-0.9-0.2-1.3-0.5     c-0.4-0.4-0.5-0.8-0.5-1.3c0-0.2,0-0.3,0-0.4l9.6-35.9c0.1-0.4,0.2-0.7,0.5-1c0.4-0.4,0.8-0.5,1.3-0.5c0.5,0,0.9,0.2,1.3,0.5     c0.2,0.3,0.4,0.6,0.5,1l9.6,35.9c0,0.2,0,0.2,0,0.4c0,0.5-0.2,0.9-0.5,1.3c-0.4,0.4-0.8,0.5-1.3,0.5c-0.5,0-0.9-0.2-1.2-0.5     c-0.2-0.2-0.5-0.6-0.5-1l-7.8-29.3l-5,18.8L905.7,447.8L905.7,447.8z"
   id="path28" />
			<path
   class="st2"
   d="M923.3,421.8c0-0.5,0.2-0.9,0.5-1.3c0.4-0.4,0.8-0.5,1.3-0.5c0.5,0,0.9,0.2,1.3,0.5c0.4,0.4,0.5,0.8,0.5,1.3     v34.3h8.4c0.5,0,0.9,0.2,1.3,0.5s0.5,0.8,0.5,1.3s-0.2,0.9-0.5,1.3c-0.4,0.4-0.8,0.5-1.3,0.5h-10.3c-0.5,0-0.9-0.2-1.3-0.5     c-0.4-0.4-0.5-0.8-0.5-1.3L923.3,421.8L923.3,421.8z"
   id="path30" />
			<path
   class="st2"
   d="M943.4,421.8c0-0.5,0.2-0.9,0.5-1.3c0.4-0.4,0.8-0.5,1.3-0.5s0.9,0.2,1.3,0.5c0.4,0.4,0.5,0.8,0.5,1.3v36     c0,0.5-0.2,0.9-0.5,1.3c-0.4,0.4-0.8,0.5-1.3,0.5s-0.9-0.2-1.3-0.5c-0.4-0.4-0.5-0.8-0.5-1.3V421.8z"
   id="path32" />
			<path
   class="st2"
   d="M964.7,447.8c0.5,0,0.9,0.2,1.3,0.5c0.4,0.4,0.5,0.8,0.5,1.3c0,0.5-0.2,0.9-0.5,1.3     c-0.4,0.4-0.8,0.5-1.3,0.5h-6l-1.8,6.8c-0.1,0.4-0.3,0.7-0.5,1c-0.4,0.4-0.8,0.5-1.3,0.5s-0.9-0.2-1.3-0.5     c-0.4-0.4-0.5-0.8-0.5-1.3c0-0.2,0-0.3,0-0.4l9.6-35.9c0.1-0.4,0.2-0.7,0.5-1c0.4-0.4,0.8-0.5,1.2-0.5c0.5,0,0.9,0.2,1.3,0.5     c0.2,0.3,0.4,0.6,0.5,1l9.6,35.9c0,0.2,0,0.2,0,0.4c0,0.5-0.2,0.9-0.5,1.3c-0.4,0.4-0.8,0.5-1.3,0.5c-0.5,0-0.9-0.2-1.3-0.5     c-0.2-0.2-0.5-0.6-0.5-1l-7.8-29.3l-5,18.8L964.7,447.8L964.7,447.8z"
   id="path34" />
			<path
   class="st2"
   d="M986,458c0,0.5-0.2,0.9-0.5,1.3c-0.4,0.4-0.8,0.5-1.3,0.5s-0.9-0.2-1.3-0.5c-0.4-0.4-0.5-0.8-0.5-1.3v-36.1     c0-0.5,0.2-0.9,0.5-1.3c0.4-0.4,0.8-0.5,1.3-0.5s0.9,0.2,1.3,0.5c0.2,0.2,0.2,0.3,0.3,0.4l13.5,28.9v-28c0-0.5,0.2-0.9,0.5-1.3     c0.4-0.4,0.8-0.5,1.3-0.5c0.5,0,0.9,0.2,1.3,0.5c0.4,0.4,0.5,0.8,0.5,1.3V458c0,0.5-0.2,0.9-0.5,1.2c-0.4,0.4-0.8,0.5-1.3,0.5     c-0.5,0-0.9-0.2-1.3-0.5c-0.2-0.2-0.3-0.4-0.5-0.7L986,429.7V458z"
   id="path36" />
			<path
   class="st2"
   d="M1013.2,421.8c0-0.5,0.2-0.9,0.5-1.3c0.4-0.4,0.8-0.5,1.3-0.5h11.5c0.5,0,0.9,0.2,1.3,0.5     c0.4,0.4,0.5,0.8,0.5,1.3c0,0.5-0.2,0.9-0.5,1.3c-0.4,0.4-0.8,0.5-1.3,0.5h-9.6v14.5h7.8c0.5,0,0.9,0.2,1.3,0.5     c0.4,0.4,0.5,0.8,0.5,1.3c0,0.5-0.2,0.9-0.5,1.3c-0.4,0.4-0.8,0.5-1.3,0.5h-7.8v14.5h9.6c0.5,0,0.9,0.2,1.3,0.5     c0.4,0.4,0.5,0.8,0.5,1.3c0,0.5-0.2,0.9-0.5,1.3c-0.4,0.4-0.8,0.5-1.3,0.5h-11.5c-0.5,0-0.9-0.2-1.3-0.5     c-0.4-0.4-0.5-0.8-0.5-1.3V421.8z"
   id="path38" />
			<path
   class="st2"
   d="M1061.1,456.1c1.1-0.1,2.1-0.5,2.9-1.4c0.9-0.9,1.4-2.1,1.4-3.4v-22.9c0-1.3-0.5-2.4-1.4-3.4     s-2.1-1.4-3.4-1.4h-4.8V458c0,0.5-0.2,0.9-0.5,1.3c-0.4,0.4-0.8,0.5-1.3,0.5s-0.9-0.2-1.3-0.5c-0.4-0.4-0.5-0.8-0.5-1.3v-36     c0-0.5,0.2-0.9,0.5-1.3c0.4-0.4,0.8-0.5,1.3-0.5h6.6c2.3,0,4.3,0.8,6,2.4c1.6,1.6,2.4,3.6,2.4,6v22.9c0,2.3-0.8,4.3-2.4,5.9     c-1.5,1.5-3.2,2.3-5.2,2.4c-0.6,0-1.1-0.2-1.4-0.5c-0.4-0.4-0.5-0.8-0.5-1.3s0.2-0.9,0.5-1.2     C1060.3,456.4,1060.7,456.2,1061.1,456.1z"
   id="path40" />
			<path
   class="st2"
   d="M1077.1,421.8c0-0.5,0.2-0.9,0.5-1.3c0.4-0.4,0.8-0.5,1.3-0.5c0.5,0,0.9,0.2,1.3,0.5     c0.4,0.4,0.5,0.8,0.5,1.3v36c0,0.5-0.2,0.9-0.5,1.3c-0.4,0.4-0.8,0.5-1.3,0.5c-0.5,0-0.9-0.2-1.3-0.5c-0.4-0.4-0.5-0.8-0.5-1.3     V421.8z"
   id="path42" />
			<path
   class="st2"
   d="M1118.4,455.2c0.3-0.3,0.8-0.5,1.2-0.5c0.5,0,0.9,0.2,1.3,0.5c0.4,0.4,0.5,0.8,0.5,1.3     c0,0.5-0.2,0.9-0.5,1.2c-1.7,1.8-3.7,2.6-6,2.6s-4.3-0.8-6-2.4c-1.7-1.6-2.4-3.6-2.4-6v-24.1c0-2.3,0.8-4.3,2.4-6     c1.6-1.6,3.6-2.4,6-2.4s4.4,0.8,6,2.6c0.3,0.4,0.5,0.8,0.5,1.3s-0.2,0.9-0.5,1.3s-0.8,0.5-1.3,0.5s-0.9-0.2-1.2-0.5     c-1-1-2.1-1.5-3.5-1.5c-1.4,0-2.4,0.5-3.4,1.4c-0.9,0.9-1.4,2.1-1.4,3.4v24c0,1.3,0.5,2.4,1.4,3.4c0.9,0.9,2.1,1.4,3.4,1.4     C1116.1,456.7,1117.4,456.2,1118.4,455.2z"
   id="path44" />
			<path
   class="st2"
   d="M1124.8,422.5c-0.1-0.2-0.1-0.4-0.1-0.5c0-0.5,0.2-0.9,0.5-1.3c0.3-0.4,0.8-0.5,1.3-0.5     c0.5,0,0.9,0.2,1.3,0.5c0.2,0.2,0.3,0.5,0.5,0.7l5.5,19.5l5.5-19.3c0.1-0.3,0.2-0.6,0.5-0.8c0.4-0.3,0.8-0.5,1.2-0.5     c0.5,0,0.9,0.2,1.2,0.5c0.3,0.4,0.5,0.8,0.5,1.3c0,0.2,0,0.5-0.1,0.7l-7.2,24.8V458c0,0.5-0.2,0.9-0.5,1.3     c-0.4,0.4-0.8,0.5-1.3,0.5c-0.5,0-0.9-0.2-1.2-0.5c-0.4-0.4-0.5-0.8-0.5-1.3v-10.6L1124.8,422.5z"
   id="path46" />
			<path
   class="st2"
   d="M1149,421.8c0-0.5,0.2-0.9,0.5-1.3c0.4-0.4,0.8-0.5,1.3-0.5s0.9,0.2,1.3,0.5c0.4,0.4,0.5,0.8,0.5,1.3v36     c0,0.5-0.2,0.9-0.5,1.3c-0.4,0.4-0.8,0.5-1.3,0.5s-0.9-0.2-1.3-0.5c-0.4-0.4-0.5-0.8-0.5-1.3V421.8z M1165.8,451.4     c0,2.3-0.8,4.3-2.4,6c-1.5,1.5-3.2,2.3-5.2,2.4c-0.6,0-1.1-0.2-1.4-0.5c-0.4-0.4-0.5-0.8-0.5-1.3s0.2-0.9,0.5-1.3     c0.3-0.3,0.7-0.5,1.1-0.5c1.1-0.1,2.1-0.5,2.9-1.4c0.9-0.9,1.4-2.1,1.4-3.4v-4.9c0-1.3-0.5-2.4-1.4-3.4c-0.8-0.8-1.7-1.2-2.7-1.4     c-0.6,0-1.1-0.2-1.4-0.5c-0.4-0.3-0.5-0.8-0.5-1.3l0,0c0-0.5,0.2-0.9,0.5-1.3c0.3-0.3,0.8-0.5,1.4-0.5c1-0.2,1.9-0.6,2.7-1.4     c0.9-0.9,1.4-2.1,1.4-3.4v-4.9c0-1.3-0.5-2.4-1.4-3.4c-0.8-0.8-1.8-1.3-2.9-1.4c-0.5-0.1-0.8-0.2-1.1-0.5     c-0.4-0.3-0.5-0.8-0.5-1.3s0.2-0.9,0.5-1.3c0.4-0.4,0.8-0.5,1.4-0.5c2,0.2,3.7,0.9,5.2,2.4c1.6,1.6,2.4,3.6,2.4,6v4.9     c0,2.8-1.1,4.9-3.1,6.6c2.1,1.6,3.1,3.8,3.1,6.6V451.4z"
   id="path48" />
			<path
   class="st2"
   d="M1175.1,421.8c0-0.5,0.2-0.9,0.5-1.3c0.4-0.4,0.8-0.5,1.3-0.5h11.5c0.5,0,0.9,0.2,1.3,0.5     c0.4,0.4,0.5,0.8,0.5,1.3c0,0.5-0.2,0.9-0.5,1.3c-0.4,0.4-0.8,0.5-1.3,0.5h-9.6v14.5h7.8c0.5,0,0.9,0.2,1.3,0.5     c0.4,0.4,0.5,0.8,0.5,1.3c0,0.5-0.2,0.9-0.5,1.3c-0.4,0.4-0.8,0.5-1.3,0.5h-7.8v14.5h9.6c0.5,0,0.9,0.2,1.3,0.5     c0.4,0.4,0.5,0.8,0.5,1.3c0,0.5-0.2,0.9-0.5,1.3c-0.4,0.4-0.8,0.5-1.3,0.5h-11.5c-0.5,0-0.9-0.2-1.3-0.5     c-0.4-0.4-0.5-0.8-0.5-1.3V421.8z"
   id="path50" />
			<path
   class="st2"
   d="M1208.2,443.4c0.5-0.2,1.1-0.5,1.5-0.9c0.7-0.7,1.1-1.5,1.1-2.5v-12.6c0-1-0.4-1.8-1.1-2.5s-1.5-1.1-2.5-1.1     h-6V458c0,0.5-0.2,0.9-0.5,1.3c-0.4,0.4-0.8,0.5-1.3,0.5s-0.9-0.2-1.3-0.5c-0.4-0.4-0.5-0.8-0.5-1.3v-36c0-0.5,0.2-0.9,0.5-1.3     c0.4-0.4,0.8-0.5,1.3-0.5h7.8c2,0,3.7,0.7,5.1,2.1c1.4,1.4,2.1,3.1,2.1,5.1v12.6c0,2-0.7,3.7-2.1,5c-0.5,0.5-0.9,0.8-1.4,1.1     l4.5,11.1c0.2,0.2,0.2,0.5,0.2,0.8c0,0.2,0,0.4-0.1,0.5c-0.2,0.5-0.5,0.8-0.9,1.1c-0.2,0.2-0.5,0.2-0.8,0.2c-0.2,0-0.4,0-0.5-0.1     c-0.5-0.2-0.8-0.5-1.1-0.9l-5.1-12.8c-0.2-0.2-0.2-0.5-0.2-0.8c0-0.5,0.2-0.9,0.5-1.3C1207.7,443.6,1207.9,443.4,1208.2,443.4z"
   id="path52" />
			<path
   class="st2"
   d="M1221.8,457.6c-0.4-0.5-0.5-0.9-0.5-1.4c0.1-0.5,0.2-0.9,0.6-1.3c0.3-0.3,0.8-0.5,1.3-0.5     c0.5,0.1,0.9,0.3,1.4,0.7c0.9,1,2,1.5,3.4,1.6h0.2c1.2,0,2.3-0.4,3.2-1.2c1-0.9,1.5-2,1.6-3.3v-0.4c0-3.3-2-7.2-6-11.6     c-4-4.4-6-8.5-6-12.2v-0.5c0.2-2.4,1.1-4.3,2.8-5.9c1.6-1.5,3.4-2.1,5.6-2.1h0.5c2.3,0.2,4.3,1.1,5.8,2.8     c0.4,0.5,0.5,0.9,0.5,1.4c-0.1,0.5-0.2,0.9-0.6,1.2c-0.3,0.3-0.8,0.5-1.2,0.5c-0.5,0-1-0.2-1.4-0.7c-0.9-1-2.1-1.5-3.4-1.5h-0.3     c-1.1,0-2.2,0.4-3.1,1.2c-1,0.9-1.5,2-1.6,3.4v0.3c0,2.8,2.1,6.4,6.1,10.9c4,4.4,6,8.7,6,12.9c0,0.2,0,0.5,0,0.7     c-0.2,2.4-1.1,4.3-2.8,5.9c-1.6,1.5-3.4,2.1-5.6,2.1h-0.5C1225.2,460.3,1223.3,459.3,1221.8,457.6z"
   id="path54" />
			<path
   class="st2"
   d="M1243.8,421.8c0-0.5,0.2-0.9,0.5-1.3c0.4-0.4,0.8-0.5,1.3-0.5s0.9,0.2,1.3,0.5c0.4,0.4,0.5,0.8,0.5,1.3v36     c0,0.5-0.2,0.9-0.5,1.3c-0.4,0.4-0.8,0.5-1.3,0.5s-0.9-0.2-1.3-0.5c-0.4-0.4-0.5-0.8-0.5-1.3V421.8z"
   id="path56" />
			<path
   class="st2"
   d="M1268.5,455.2c0.3-0.3,0.8-0.5,1.3-0.5s0.9,0.2,1.3,0.5c0.4,0.4,0.5,0.8,0.5,1.3c0,0.5-0.2,0.9-0.5,1.2     c-1.7,1.8-3.7,2.6-6,2.6c-2.3,0-4.3-0.8-6-2.4c-1.7-1.6-2.4-3.6-2.4-6v-24.1c0-2.3,0.8-4.3,2.4-6c1.6-1.6,3.6-2.4,6-2.4     s4.4,0.8,6,2.6c0.3,0.4,0.5,0.8,0.5,1.3s-0.2,0.9-0.5,1.3s-0.8,0.5-1.3,0.5s-0.9-0.2-1.3-0.5c-1-1-2.1-1.5-3.5-1.5     s-2.4,0.5-3.4,1.4c-0.9,0.9-1.4,2.1-1.4,3.4v24c0,1.3,0.5,2.4,1.4,3.4c0.9,0.9,2.1,1.4,3.4,1.4     C1266.3,456.7,1267.5,456.2,1268.5,455.2z"
   id="path58" />
			<path
   class="st2"
   d="M1278.5,421.9c0-0.5,0.2-0.9,0.5-1.3s0.8-0.5,1.3-0.5s0.9,0.2,1.3,0.5s0.5,0.8,0.5,1.3v30     c0,1.3,0.5,2.4,1.4,3.4c0.9,0.9,2.1,1.4,3.4,1.4c1.3,0,2.4-0.5,3.4-1.4c0.9-0.9,1.4-2.1,1.4-3.4v-30c0-0.5,0.2-0.9,0.5-1.3     c0.4-0.4,0.8-0.5,1.3-0.5c0.5,0,0.9,0.2,1.3,0.5c0.4,0.4,0.5,0.8,0.5,1.3v30c0,2.3-0.8,4.3-2.4,6s-3.6,2.4-6,2.4s-4.3-0.8-6-2.4     c-1.6-1.6-2.4-3.6-2.4-6L1278.5,421.9L1278.5,421.9z"
   id="path60" />
			<path
   class="st2"
   d="M1315.8,443.4c0.5-0.2,1.1-0.5,1.5-0.9c0.7-0.7,1.1-1.5,1.1-2.5v-12.6c0-1-0.4-1.8-1.1-2.5     c-0.7-0.7-1.5-1.1-2.5-1.1h-6V458c0,0.5-0.2,0.9-0.5,1.3c-0.4,0.4-0.8,0.5-1.3,0.5s-0.9-0.2-1.3-0.5c-0.4-0.4-0.5-0.8-0.5-1.3     v-36c0-0.5,0.2-0.9,0.5-1.3c0.4-0.4,0.8-0.5,1.3-0.5h7.8c2,0,3.7,0.7,5.1,2.1c1.4,1.4,2.1,3.1,2.1,5.1v12.6c0,2-0.7,3.7-2.1,5     c-0.5,0.5-0.9,0.8-1.4,1.1l4.5,11.1c0.2,0.2,0.2,0.5,0.2,0.8c0,0.2,0,0.4-0.1,0.5c-0.2,0.5-0.5,0.8-0.9,1.1     c-0.2,0.2-0.5,0.2-0.8,0.2c-0.2,0-0.4,0-0.5-0.1c-0.5-0.2-0.8-0.5-1.1-0.9l-5.1-12.8c-0.2-0.2-0.2-0.5-0.2-0.8     c0-0.5,0.2-0.9,0.5-1.3C1315.2,443.6,1315.5,443.4,1315.8,443.4z"
   id="path62" />
			<path
   class="st2"
   d="M1331.3,421.8c0-0.5,0.2-0.9,0.5-1.3c0.4-0.4,0.8-0.5,1.3-0.5h11.5c0.5,0,0.9,0.2,1.3,0.5     c0.4,0.4,0.5,0.8,0.5,1.3c0,0.5-0.2,0.9-0.5,1.3c-0.4,0.4-0.8,0.5-1.3,0.5h-9.6v14.5h7.8c0.5,0,0.9,0.2,1.3,0.5     c0.4,0.4,0.5,0.8,0.5,1.3c0,0.5-0.2,0.9-0.5,1.3c-0.4,0.4-0.8,0.5-1.3,0.5h-7.8v14.5h9.6c0.5,0,0.9,0.2,1.3,0.5     c0.4,0.4,0.5,0.8,0.5,1.3c0,0.5-0.2,0.9-0.5,1.3c-0.4,0.4-0.8,0.5-1.3,0.5h-11.5c-0.5,0-0.9-0.2-1.3-0.5     c-0.4-0.4-0.5-0.8-0.5-1.3V421.8z"
   id="path64" />
			<path
   class="st2"
   d="M1352,423.7c-0.5,0-0.9-0.2-1.3-0.5c-0.4-0.4-0.5-0.8-0.5-1.3s0.2-0.9,0.5-1.3c0.4-0.4,0.8-0.5,1.3-0.5h13.8     c0.5,0,0.9,0.2,1.3,0.5c0.4,0.4,0.5,0.8,0.5,1.3c0,0.2-0.1,0.5-0.2,0.7l-12.9,33.6h11.2c0.5,0,0.9,0.2,1.3,0.5     c0.4,0.4,0.5,0.8,0.5,1.3c0,0.5-0.2,0.9-0.5,1.3c-0.4,0.4-0.8,0.5-1.3,0.5H1352c-0.5,0-0.9-0.2-1.2-0.5c-0.3-0.4-0.5-0.8-0.5-1.3     c0-0.3,0.1-0.5,0.2-0.8l12.8-33.4L1352,423.7L1352,423.7z"
   id="path66" />
			<path
   class="st2"
   d="M1373.1,423.7c-0.5,0-0.9-0.2-1.3-0.5c-0.4-0.4-0.5-0.8-0.5-1.3s0.2-0.9,0.5-1.3c0.4-0.4,0.8-0.5,1.3-0.5     h13.8c0.5,0,0.9,0.2,1.3,0.5c0.4,0.4,0.5,0.8,0.5,1.3c0,0.2-0.1,0.5-0.2,0.7l-12.9,33.6h11.2c0.5,0,0.9,0.2,1.3,0.5     c0.4,0.4,0.5,0.8,0.5,1.3c0,0.5-0.2,0.9-0.5,1.3c-0.4,0.4-0.8,0.5-1.3,0.5h-13.8c-0.5,0-0.9-0.2-1.2-0.5     c-0.3-0.4-0.5-0.8-0.5-1.3c0-0.3,0.1-0.5,0.2-0.8l12.8-33.4L1373.1,423.7L1373.1,423.7z"
   id="path68" />
			<path
   class="st2"
   d="M1403.2,447.8c0.5,0,0.9,0.2,1.3,0.5c0.4,0.4,0.5,0.8,0.5,1.3c0,0.5-0.2,0.9-0.5,1.3     c-0.4,0.4-0.8,0.5-1.3,0.5h-6l-1.8,6.8c-0.1,0.4-0.3,0.7-0.5,1c-0.4,0.4-0.8,0.5-1.3,0.5s-0.9-0.2-1.3-0.5     c-0.4-0.4-0.5-0.8-0.5-1.3c0-0.2,0-0.3,0-0.4l9.6-35.9c0.1-0.4,0.2-0.7,0.5-1c0.4-0.4,0.8-0.5,1.2-0.5c0.5,0,0.9,0.2,1.3,0.5     c0.2,0.3,0.4,0.6,0.5,1l9.6,35.9c0,0.2,0,0.2,0,0.4c0,0.5-0.2,0.9-0.5,1.3c-0.4,0.4-0.8,0.5-1.3,0.5s-0.9-0.2-1.3-0.5     c-0.2-0.2-0.5-0.6-0.5-1l-7.8-29.3l-5,18.8L1403.2,447.8L1403.2,447.8z"
   id="path70" />
		</g>
		<g
   class="st1"
   id="g90"
   style="opacity:1;fill:#ffffff">
			<path
   class="st3"
   d="M651.7,145c2.5,0,4.7,0.9,6.4,2.8c1.8,1.8,2.6,4,2.6,6.4c0,2.5-0.8,4.7-2.5,6.4c-0.5,0.5-1,1-1.5,1.4     c-1.4,0.9-2.7,2-3.9,3.2c-4.7,4.7-7,10.5-7,17.1v126.2c0,6.7,2.4,12.4,7,17.1c1.2,1.2,2.5,2.3,3.9,3.2c0.5,0.3,0.9,0.7,1.4,1.1     c1.8,1.8,2.7,4,2.7,6.5c0,2.5-0.9,4.7-2.7,6.4c-1.8,1.8-3.9,2.7-6.4,2.7c-1.8,0-3.4-0.5-5-1.4c-2.4-1.6-4.7-3.5-6.7-5.6     c-8.2-8.3-12.3-18.4-12.3-30.1V182.1c0-11.8,4.1-21.8,12.3-30.1c2.1-2.1,4.3-4,6.5-5.4C647.9,145.6,649.7,145,651.7,145z      M683.9,162.5c-0.9-0.4-1.7-1-2.4-1.8c-1.8-1.7-2.7-3.8-2.7-6.4s0.8-4.7,2.6-6.4c1.8-1.8,3.9-2.7,6.4-2.7c2,0,3.8,0.5,5.4,1.7     c2.2,1.5,4.3,3.3,6.4,5.4c8.2,8.3,12.3,18.4,12.3,30.1v126.2c0,11.8-4.1,21.8-12.3,30.1c-2.2,2.2-4.5,4.1-6.9,5.7     c-1.4,0.9-3,1.4-4.8,1.4c-2.5,0-4.7-0.9-6.4-2.8c-1.8-1.8-2.6-4-2.6-6.4c0-2.5,0.9-4.7,2.7-6.5c0.4-0.4,0.8-0.8,1.2-1.1     c1.4-0.9,2.8-2,4.1-3.4c4.7-4.7,7-10.5,7-17.1V182.3c0-6.7-2.4-12.4-7-17.1C685.8,164.2,684.9,163.2,683.9,162.5z"
   id="path74"
   style="fill:#ffffff" />
			<path
   class="st3"
   d="M753.9,154.1c0-2.5,0.8-4.7,2.6-6.4c1.8-1.8,3.9-2.7,6.4-2.7s4.7,0.9,6.4,2.7c1.8,1.8,2.6,3.9,2.6,6.4v173.2     h42.1c2.5,0,4.7,0.9,6.4,2.7c1.8,1.8,2.6,3.9,2.6,6.4c0,2.5-0.8,4.7-2.6,6.4c-1.8,1.8-3.9,2.7-6.4,2.7H763     c-2.5,0-4.7-0.9-6.4-2.7c-1.8-1.8-2.6-3.9-2.6-6.4V154.1z"
   id="path76"
   style="fill:#ffffff" />
			<path
   class="st3"
   d="M850.2,154.1c0-2.5,0.8-4.7,2.6-6.4c1.8-1.8,3.9-2.7,6.4-2.7s4.7,0.9,6.4,2.7c1.8,1.8,2.6,3.9,2.6,6.4v182.3     c0,2.5-0.8,4.7-2.6,6.4c-1.8,1.8-3.9,2.7-6.4,2.7s-4.7-0.9-6.4-2.7c-1.8-1.8-2.6-3.9-2.6-6.4V154.1z"
   id="path78"
   style="fill:#ffffff" />
			<path
   class="st3"
   d="M969.9,322.8c1.7-1.7,3.8-2.6,6.4-2.6c2.5,0,4.7,0.9,6.4,2.7c1.8,1.8,2.6,3.9,2.6,6.4c0,2.4-0.8,4.6-2.5,6.4     c-8.5,8.7-18.6,13.1-30.2,13.1c-11.6,0-21.6-4.1-29.8-12.5c-8.2-8.3-12.3-18.4-12.3-30.1V184.4c0-11.8,4.1-21.8,12.3-30.1     c8.2-8.3,18.1-12.5,29.8-12.5s21.7,4.4,30.2,13.1c1.7,1.8,2.5,4,2.5,6.4c0,2.5-0.8,4.7-2.6,6.4c-1.8,1.8-3.9,2.7-6.4,2.7     c-2.5,0-4.6-0.9-6.4-2.8c-5-5-10.9-7.4-17.4-7.4c-6.7,0-12.4,2.4-17.1,7.1c-4.7,4.7-7,10.5-7,17.1V306c0,6.7,2.3,12.4,7,17.1     c4.7,4.7,10.3,7.1,17.1,7.1C959.1,330.3,964.9,327.8,969.9,322.8z"
   id="path80"
   style="fill:#ffffff" />
			<path
   class="st3"
   d="M998,157c-0.2-0.9-0.3-1.8-0.3-2.9c0-2.5,0.8-4.7,2.5-6.4c1.7-1.8,3.8-2.7,6.4-2.7s4.7,0.8,6.5,2.6     c1,1.1,1.7,2.3,2.1,3.5l27.7,98.5l27.5-97.6c0.4-1.6,1.2-3.1,2.5-4.4c1.8-1.7,3.9-2.6,6.4-2.6c2.5,0,4.6,0.9,6.3,2.7     c1.7,1.8,2.4,3.9,2.4,6.4c0,1.3-0.2,2.5-0.5,3.7l-35.8,125.2v53.5c0,2.5-0.8,4.7-2.6,6.4c-1.8,1.8-3.9,2.7-6.4,2.7     c-2.4,0-4.5-0.9-6.4-2.7c-1.8-1.8-2.7-3.9-2.7-6.4v-53.6L998,157z"
   id="path82"
   style="fill:#ffffff" />
			<path
   class="st3"
   d="M1114.8,154.1c0-2.5,0.8-4.7,2.6-6.4c1.8-1.8,3.9-2.7,6.4-2.7s4.7,0.9,6.4,2.7c1.8,1.8,2.6,3.9,2.6,6.4     v182.3c0,2.5-0.8,4.7-2.6,6.4c-1.8,1.8-3.9,2.7-6.4,2.7s-4.7-0.9-6.4-2.7c-1.8-1.8-2.6-3.9-2.6-6.4V154.1z M1199.1,303.3     c0,11.8-4.1,21.8-12.3,30.1c-7.3,7.5-16.1,11.6-26.2,12.3c-2.9,0-5.2-0.9-7-2.7c-1.8-1.8-2.6-3.9-2.6-6.4c0-2.5,0.9-4.7,2.7-6.4     c1.5-1.6,3.4-2.5,5.6-2.8c5.7-0.5,10.6-2.8,14.8-7c4.7-4.7,7-10.5,7-17.1v-24.9c0-6.7-2.4-12.4-7-17.1c-3.8-3.8-8.3-6.1-13.4-6.8     c-2.9,0-5.2-0.9-6.9-2.8c-1.8-1.7-2.7-3.8-2.7-6.4v-0.2c0-2.5,0.9-4.7,2.7-6.5c1.7-1.7,4-2.6,6.9-2.6c5.1-0.7,9.6-3,13.4-6.8     c4.7-4.7,7-10.5,7-17.1v-24.8c0-6.7-2.4-12.4-7-17.1c-4.1-4.1-9-6.5-14.8-7c-2.2-0.2-4.1-1.1-5.6-2.8c-1.8-1.7-2.7-3.8-2.7-6.4     s0.8-4.7,2.6-6.4c1.8-1.8,4.1-2.7,7-2.7c10.1,0.7,18.8,4.8,26.2,12.3c8.2,8.3,12.3,18.4,12.3,30.1v24.6     c0,13.8-5.2,24.9-15.6,33.3c10.4,8.3,15.6,19.4,15.6,33.1V303.3z"
   id="path84"
   style="fill:#ffffff" />
			<path
   class="st3"
   d="M1241.2,154.1c0-2.5,0.8-4.7,2.6-6.4c1.8-1.8,3.9-2.7,6.4-2.7h57.3c2.5,0,4.7,0.9,6.4,2.7     c1.8,1.8,2.6,3.9,2.6,6.4c0,2.4-0.8,4.6-2.6,6.4c-1.8,1.8-3.9,2.8-6.4,2.8h-48.3v72.9h39.1c2.5,0,4.7,0.9,6.4,2.7     c1.8,1.8,2.6,3.9,2.6,6.4s-0.8,4.7-2.6,6.4c-1.8,1.8-3.9,2.7-6.4,2.7h-39.1v72.9h48.3c2.5,0,4.7,0.9,6.4,2.7     c1.8,1.8,2.6,3.9,2.6,6.4c0,2.4-0.8,4.6-2.6,6.4c-1.8,1.8-3.9,2.8-6.4,2.8h-57.3c-2.5,0-4.7-0.9-6.4-2.7s-2.6-3.9-2.6-6.4V154.1z     "
   id="path86"
   style="fill:#ffffff" />
			<path
   class="st3"
   d="M1402.5,262.9c2.8-0.8,5.4-2.4,7.8-4.7c3.5-3.5,5.3-7.9,5.3-12.9v-63.8c0-5-1.8-9.3-5.4-12.9     c-3.6-3.5-7.8-5.3-12.7-5.3h-30.1v173.2c0,2.5-0.8,4.7-2.6,6.4c-1.8,1.8-3.9,2.7-6.4,2.7s-4.7-0.9-6.4-2.7s-2.6-3.9-2.6-6.4     V154.1c0-2.5,0.8-4.7,2.6-6.4c1.8-1.8,3.9-2.7,6.4-2.7h39.1c9.9,0,18.4,3.6,25.5,10.7c7,7.1,10.6,15.8,10.6,25.8v63.8     c0,10-3.5,18.6-10.6,25.7c-2.2,2.2-4.5,4.1-6.9,5.6l22.6,55.9c0.6,1.3,0.9,2.6,0.9,4c0,0.9-0.2,1.8-0.5,2.8     c-0.8,2.4-2.3,4.2-4.5,5.3c-1.3,0.7-2.7,1.1-4.1,1.1c-0.9,0-1.8-0.1-2.7-0.3c-2.4-0.8-4.2-2.4-5.4-4.7l-25.7-64.4     c-0.7-1.3-1.1-2.8-1.1-4.4c0-2.5,0.9-4.7,2.7-6.5C1399.7,263.9,1401,263.2,1402.5,262.9z"
   id="path88"
   style="fill:#ffffff" />
		</g>
	</g>
	<g
   id="g148">
		<g
   id="g132">
			<rect
   x="213.7"
   class="st3"
   width="106.8"
   height="17.8"
   id="rect94" />
			<rect
   x="124.6"
   y="35.6"
   class="st3"
   width="284.9"
   height="17.8"
   id="rect96" />
			<rect
   x="17.8"
   y="71.2"
   class="st3"
   width="498.5"
   height="17.8"
   id="rect98" />
			<rect
   y="106.8"
   class="st3"
   width="534.1"
   height="17.8"
   id="rect100" />
			<rect
   x="142.5"
   y="569.7"
   class="st3"
   width="249.3"
   height="17.8"
   id="rect102" />
			<rect
   x="35.7"
   y="462.9"
   class="st3"
   width="463"
   height="17.8"
   id="rect104" />
			<rect
   y="142.4"
   class="st3"
   width="534.1"
   height="17.8"
   id="rect106" />
			<rect
   y="213.6"
   class="st3"
   width="534.1"
   height="17.8"
   id="rect108" />
			<rect
   x="249.3"
   y="178"
   class="st3"
   width="284.9"
   height="17.8"
   id="rect110" />
			<rect
   x="195.9"
   y="605.4"
   class="st3"
   width="142.5"
   height="17.8"
   id="rect112" />
			<rect
   x="53.4"
   y="498.5"
   class="st3"
   width="427.3"
   height="17.8"
   id="rect114" />
			<rect
   x="89.1"
   y="534.1"
   class="st3"
   width="356.1"
   height="17.8"
   id="rect116" />
			<rect
   y="284.9"
   class="st3"
   width="534.1"
   height="17.8"
   id="rect118" />
			<rect
   y="320.4"
   class="st3"
   width="534.1"
   height="17.8"
   id="rect120" />
			<rect
   y="356.1"
   class="st3"
   width="534.1"
   height="17.8"
   id="rect122" />
			<rect
   y="391.7"
   class="st3"
   width="534.1"
   height="17.8"
   id="rect124" />
			<rect
   x="17.4"
   y="427.3"
   class="st3"
   width="498.9"
   height="17.8"
   id="rect126" />
			<rect
   y="178"
   class="st3"
   width="534.1"
   height="17.8"
   id="rect128" />
			<rect
   y="249.3"
   class="st3"
   width="534.1"
   height="17.8"
   id="rect130" />
		</g>
		<g
   id="g146">
			<g
   id="g136">
				<path
   class="st0"
   d="M294,233.6l96.6-75.8c5.5-4.3,5.6-12.2,0.2-16.6c-33.1-27.3-76.5-43.8-124.3-43.7      c-102.9,0.2-185.6,79-185.6,174.8c0,64.1,25.6,125.9,71.7,173.5l11.4,11.8L294,233.6z"
   id="path134" />
			</g>
			<g
   id="g140">
				<path
   class="st2"
   d="M451.3,290.7c-4.4-9.9-29.1-46.4-29.1-46.4c-22.1-40.2-57.6-78.6-90.4-90.4l8.4-50.9V103      c0.8-5.4-4.4-9.6-9.3-7.4c-1.5,0.6-2.9,1.3-4.2,2.1c-27.3,14.6-37.8,47.8-37.8,47.8S131,166.7,171.3,400.5      c6.9,32-11.5,64.5-34.7,91.3c38.4,23.1,83.2,36.3,131.1,36.3c44.4,0,86.1-11.4,122.6-31.4c-4.3-19.4-12.8-40.4-27.9-61.8      c-58.8-83.3-56.2-153.6-56.2-153.6c16.5,35.3,61.6,28.4,61.6,28.4l24.7,25.2c5.4,5.4,12.4,9,20,9.3      c17.2,0.8,31.4-13.1,31.4-30.5C453.1,304.7,455.6,300.6,451.3,290.7L451.3,290.7z"
   id="path138" />
			</g>
			<g
   id="g144">
				<path
   class="st0"
   d="M343.6,218.5c-5.5-8.5-1.7-18.7,1.8-25c1.7-3.1,5.8-3.7,8.3-1.3l30.5,29.5c3.4,3.3,1.3,9.2-3.4,9.5      C368.9,231.8,351.3,230.5,343.6,218.5L343.6,218.5z"
   id="path142" />
			</g>
		</g>
	</g>
</g>
</svg>
